ModelForces
version=1
nRows=4
nColumns=158
inDegrees=no

This file contains the forces exerted on a model during a simulation.

A force is a generalized force, meaning that it can be either a force (N) or a torque (Nm).

Units are S.I. units (second, meters, Newtons, ...)
Angles are in degrees.

endheader
time	glut_med1_r	glut_med2_r	glut_med3_r	glut_min1_r	glut_min2_r	glut_min3_r	semimem_r	semiten_r	bifemlh_r	bifemsh_r	sar_r	add_long_r	add_brev_r	add_mag1_r	add_mag2_r	add_mag3_r	tfl_r	pect_r	grac_r	glut_max1_r	glut_max2_r	glut_max3_r	iliacus_r	psoas_r	quad_fem_r	gem_r	peri_r	rect_fem_r	vas_med_r	vas_int_r	vas_lat_r	med_gas_r	lat_gas_r	soleus_r	tib_post_r	flex_dig_r	flex_hal_r	tib_ant_r	per_brev_r	per_long_r	per_tert_r	ext_dig_r	ext_hal_r	glut_med1_l	glut_med2_l	glut_med3_l	glut_min1_l	glut_min2_l	glut_min3_l	semimem_l	semiten_l	bifemlh_l	bifemsh_l	sar_l	add_long_l	add_brev_l	add_mag1_l	add_mag2_l	add_mag3_l	tfl_l	pect_l	grac_l	glut_max1_l	glut_max2_l	glut_max3_l	iliacus_l	psoas_l	quad_fem_l	gem_l	peri_l	rect_fem_l	vas_med_l	vas_int_l	vas_lat_l	med_gas_l	lat_gas_l	soleus_l	tib_post_l	flex_dig_l	flex_hal_l	tib_ant_l	per_brev_l	per_long_l	per_tert_l	ext_dig_l	ext_hal_l	ercspn_r	ercspn_l	intobl_r	intobl_l	extobl_r	extobl_l	femur_lat_meniscii_r.femur_lat_r.force.X	femur_lat_meniscii_r.femur_lat_r.force.Y	femur_lat_meniscii_r.femur_lat_r.force.Z	femur_lat_meniscii_r.femur_lat_r.torque.X	femur_lat_meniscii_r.femur_lat_r.torque.Y	femur_lat_meniscii_r.femur_lat_r.torque.Z	femur_lat_meniscii_r.meniscus_lat_r.force.X	femur_lat_meniscii_r.meniscus_lat_r.force.Y	femur_lat_meniscii_r.meniscus_lat_r.force.Z	femur_lat_meniscii_r.meniscus_lat_r.torque.X	femur_lat_meniscii_r.meniscus_lat_r.torque.Y	femur_lat_meniscii_r.meniscus_lat_r.torque.Z	femur_med_meniscii_r.femur_med_r.force.X	femur_med_meniscii_r.femur_med_r.force.Y	femur_med_meniscii_r.femur_med_r.force.Z	femur_med_meniscii_r.femur_med_r.torque.X	femur_med_meniscii_r.femur_med_r.torque.Y	femur_med_meniscii_r.femur_med_r.torque.Z	femur_med_meniscii_r.meniscus_med_r.force.X	femur_med_meniscii_r.meniscus_med_r.force.Y	femur_med_meniscii_r.meniscus_med_r.force.Z	femur_med_meniscii_r.meniscus_med_r.torque.X	femur_med_meniscii_r.meniscus_med_r.torque.Y	femur_med_meniscii_r.meniscus_med_r.torque.Z	femur_med_tibia_r.tibia_upper_r.force.X	femur_med_tibia_r.tibia_upper_r.force.Y	femur_med_tibia_r.tibia_upper_r.force.Z	femur_med_tibia_r.tibia_upper_r.torque.X	femur_med_tibia_r.tibia_upper_r.torque.Y	femur_med_tibia_r.tibia_upper_r.torque.Z	femur_med_tibia_r.femur_med_r.force.X	femur_med_tibia_r.femur_med_r.force.Y	femur_med_tibia_r.femur_med_r.force.Z	femur_med_tibia_r.femur_med_r.torque.X	femur_med_tibia_r.femur_med_r.torque.Y	femur_med_tibia_r.femur_med_r.torque.Z	femur_lat_tibia_r.tibia_upper_r.force.X	femur_lat_tibia_r.tibia_upper_r.force.Y	femur_lat_tibia_r.tibia_upper_r.force.Z	femur_lat_tibia_r.tibia_upper_r.torque.X	femur_lat_tibia_r.tibia_upper_r.torque.Y	femur_lat_tibia_r.tibia_upper_r.torque.Z	femur_lat_tibia_r.femur_lat_r.force.X	femur_lat_tibia_r.femur_lat_r.force.Y	femur_lat_tibia_r.femur_lat_r.force.Z	femur_lat_tibia_r.femur_lat_r.torque.X	femur_lat_tibia_r.femur_lat_r.torque.Y	femur_lat_tibia_r.femur_lat_r.torque.Z	aACL_R	pACL_R	aPCL_R	pPCL_R	aMCL_R	mMCL_R	pMCL_R	aLCL_R	mLCL_R	pLCL_R	aPCL_L	pPCL_L	aMCL_L	aLCL_L	ground_prescribedForce_-60_fx	ground_prescribedForce_-60_fy	ground_prescribedForce_-60_fz
      0.47622586	      7.61408005	      5.71131181	      6.11409012	      2.67940531	      3.20108785	      3.22065704	      0.00000000	      3.69418356	      4.22056429	      5.78964228	      1.52924304	      5.65894601	      4.17265081	      2.94222214	      2.47377626	      4.02356653	      2.95967008	      2.25605807	      1.48839951	      3.68544797	      5.60077886	      4.18145571	     22.73020958	     13.05974511	      3.65520348	      2.86766934	      4.14338695	     58.63946272	     13.69707922	     14.39275051	     19.41447158	      0.00000000	      0.00000000	     11.76831572	     15.22176029	      2.46321634	      3.02503149	     12.47236381	      2.95568122	      6.30595224	      8.75230761	      7.63615167	      2.14863134	      7.61408005	      5.71131181	      6.11409012	      2.67940531	      3.20108785	      3.22065704	      8.84161079	      4.11866470	      7.76305972	      7.27282016	      1.53138926	      5.65894601	      4.17265081	      2.94222214	      2.47377626	      4.02356653	      4.11935176	      2.25605807	      1.57085477	      3.68544797	      5.60077886	      4.18145571	     22.73020958	     13.05974511	      3.65520348	      2.86766934	      4.14338695	     10.77632226	      6.64690893	      7.62574281	      8.19938572	     14.19397294	      6.59077754	     31.49140770	     42.51765740	      2.78475219	      2.95609197	      8.53392575	      4.38329186	     12.56613565	      2.02029518	      5.33158857	      1.69338643	     25.19954085	     25.19954085	      9.07580415	      9.07580415	     26.87270016	     26.87270016	    182.23093252	     99.74900694	     31.14714732	    -15.14533154	      4.56039416	     74.47772015	   -182.23093252	    -99.74900694	    -31.14714732	      3.43067132	     -6.19923812	     -0.69097846	    126.86591824	     16.47540897	    -10.62979830	      4.64157267	     -2.52297077	     51.56152356	   -126.86591824	    -16.47540897	     10.62979830	     -0.39497597	      2.15169991	     -1.45412402	   -110.42684343	    -49.50255922	      8.49153123	     -0.76824098	      1.60897022	     -0.60426766	    110.42684343	     49.50255922	     -8.49153123	      4.33947945	     -1.95025521	     45.05633415	      0.00000000	      0.00000000	      0.00000000	      0.00000000	      0.00000000	      0.00000000	      0.00000000	      0.00000000	      0.00000000	      0.00000000	      0.00000000	      0.00000000	     77.68620077	     17.29122107	    290.02515069	     54.51525170	      5.68150504	      1.89224871	      0.00000000	      0.00000000	      0.00000000	      0.00000000	      0.00000000	      0.00000000	      0.00000001	      0.00000000	     55.00000000	    -95.26270000	      0.00000000
      0.47841016	      7.61217734	      5.71000130	      6.11266978	      2.67881657	      3.20045095	      3.21985386	      0.00000000	      3.69063490	      4.22684999	      5.78012753	      1.52176147	      5.65763238	      4.17174225	      2.94155195	      2.47319935	      4.02252722	      2.96443458	      2.25555920	      1.48495217	      3.68460298	      5.59949082	      4.18047645	     22.72783307	     13.05707201	      3.65438287	      2.86728508	      4.14186577	     58.62620626	     13.63411177	     14.33587139	     19.35497783	      0.00000000	      0.00000000	     11.71568485	     15.31580976	      2.50942628	      3.02415891	     12.47420403	      2.95742300	      6.27928614	      8.76459438	      7.55877802	      2.14021877	      7.61217734	      5.71000130	      6.11266978	      2.67881657	      3.20045095	      3.21985386	      8.83884125	      4.11764532	      7.76075451	      7.27118638	      1.53105430	      5.65763238	      4.17174225	      2.94155195	      2.47319935	      4.02252722	      4.11870890	      2.25555920	      1.57050522	      3.68460298	      5.59949082	      4.18047645	     22.72783307	     13.05707201	      3.65438287	      2.86728508	      4.14186577	     10.77318460	      6.64534884	      7.62391842	      8.19743399	     14.18729841	      6.58767368	     31.47987119	     42.51313114	      2.78271608	      2.95459511	      8.53156426	      4.38187845	     12.56275696	      2.01988054	      5.33039073	      1.69304093	     25.19399123	     25.19399123	      9.07362756	      9.07362756	     26.87074502	     26.87074502	    182.67079675	     99.78309039	     30.60687072	    -14.92211387	      4.56461297	     74.66025184	   -182.67079675	    -99.78309039	    -30.60687072	      3.41955516	     -6.19327555	     -0.69991236	    126.93500419	     16.41170654	    -11.19767833	      4.87303982	     -2.53067782	     51.59070455	   -126.93500419	    -16.41170654	     11.19767833	     -0.40416371	      2.17228415	     -1.45754841	   -110.22833406	    -49.39402391	      8.58285759	     -0.76866419	      1.60938677	     -0.60360732	    110.22833406	     49.39402391	     -8.58285759	      4.37529565	     -1.94778940	     44.97553194	      0.00000000	      0.00000000	      0.00000000	      0.00000000	      0.00000000	      0.00000000	      0.00000000	      0.00000000	      0.00000000	      0.00000000	      0.00000000	      0.00000000	     77.83995837	     17.47064486	    289.69234280	     54.15661914	      5.53765391	      1.72639505	      0.00000000	      0.00000000	      0.00000000	      0.00000000	      0.00000000	      0.00000000	      0.00000001	      0.00000000	     55.00000000	    -95.26270000	      0.00000000
      0.48059447	      7.61032748	      5.70872718	      6.11128888	      2.67824417	      3.19983173	      3.21907299	      0.00000000	      3.68922579	      4.23504431	      5.79341809	      1.52078506	      5.65635521	      4.17085893	      2.94090037	      2.47263846	      4.02151678	      2.97097013	      2.25507419	      1.48397345	      3.68378145	      5.59823854	      4.17952438	     22.72552256	     13.05447319	      3.65358503	      2.86691150	      4.14038629	     58.62591202	     13.58571956	     14.29422589	     19.31158603	      0.00000000	      0.00000000	     11.66723860	     15.39605999	      2.55702313	      3.02319390	     12.47070033	      2.96346523	      6.26038956	      8.77978634	      7.47438147	      2.13085173	      7.61032748	      5.70872718	      6.11128888	      2.67824417	      3.19983173	      3.21907299	      8.83614848	      4.11665424	      7.75851327	      7.26959793	      1.53072864	      5.65635521	      4.17085893	      2.94090037	      2.47263846	      4.02151678	      4.11808390	      2.25507419	      1.57016538	      3.68378145	      5.59823854	      4.17952438	     22.72552256	     13.05447319	      3.65358503	      2.86691150	      4.14038629	     10.77013401	      6.64383207	      7.62214470	      8.19553647	     14.18079957	      6.58465151	     31.46865114	     42.50872976	      2.78070154	      2.95312067	      8.52926835	      4.38050416	     12.55946972	      2.01947743	      5.32924919	      1.69271215	     25.18859563	     25.18859563	      9.07151141	      9.07151141	     26.86884417	     26.86884417	    182.75756213	     99.79493876	     30.57190770	    -14.90794160	      4.56642866	     74.69669829	   -182.75756213	    -99.79493876	    -30.57190770	      3.41934402	     -6.19518584	     -0.70164928	    126.83718508	     16.30735951	    -11.27008149	      4.90059986	     -2.52938195	     51.55212444	   -126.83718508	    -16.30735951	     11.27008149	     -0.40380444	      2.17288586	     -1.45955289	   -109.54424638	    -49.10668688	      8.74485112	     -0.76852964	      1.60648120	     -0.59891200	    109.54424638	     49.10668688	     -8.74485112	      4.43736619	     -1.93792405	     44.69616065	      0.00000000	      0.00000000	      0.00000000	      0.00000000	      0.00000000	      0.00000000	      0.00000000	      0.00000000	      0.00000000	      0.00000000	      0.00000000	      0.00000000	     77.94425513	     17.56823153	    289.56959535	     54.18617507	      5.56448850	      1.74287063	      0.00000000	      0.00000000	      0.00000000	      0.00000000	      0.00000000	      0.00000000	      0.00000001	      0.00000000	     55.00000000	    -95.26270000	      0.00000000
      0.48409311	      7.60747097	      5.70675966	      6.10915649	      2.67736027	      3.19887552	      3.21786719	      0.00000000	      3.68700959	      4.24784110	      5.80802425	      1.51872863	      5.65438301	      4.16949490	      2.93989420	      2.47177234	      4.01995649	      2.98204573	      2.25432521	      1.48190822	      3.68251285	      5.59630477	      4.17805421	     22.72195469	     13.05046020	      3.65235300	      2.86633464	      4.13810063	     58.62494296	     13.51011655	     14.22948814	     19.24473375	      0.00000000	      0.00000000	     11.59608394	     15.49725686	      2.63573854	      3.02131768	     12.45794681	      2.98051471	      6.24507702	      8.80864860	      7.32559942	      2.11463021	      7.60747097	      5.70675966	      6.10915649	      2.67736027	      3.19887552	      3.21786719	      8.83199003	      4.11512385	      7.75505227	      7.26714504	      1.53022576	      5.65438301	      4.16949490	      2.93989420	      2.47177234	      4.01995649	      4.11711881	      2.25432521	      1.56964059	      3.68251285	      5.59630477	      4.17805421	     22.72195469	     13.05046020	      3.65235300	      2.86633464	      4.13810063	     10.76542326	      6.64148990	      7.61940575	      8.19260637	     14.17074509	      6.57997580	     31.45131773	     42.50193159	      2.77751782	      2.95080406	      8.52572304	      4.37838173	     12.55438897	      2.01885495	      5.32753403	      1.69221910	     25.18026365	     25.18026365	      9.06824367	      9.06824367	     26.86590891	     26.86590891	    182.89298008	     99.86970438	     30.73468307	    -14.97687233	      4.57131525	     74.75303614	   -182.89298008	    -99.86970438	    -30.73468307	      3.42507948	     -6.20523178	     -0.70247327	    126.85323406	     16.27724876	    -11.23587609	      4.88622163	     -2.52905817	     51.55923226	   -126.85323406	    -16.27724876	     11.23587609	     -0.40289763	      2.17129513	     -1.46071337	   -108.73407040	    -48.73011166	      8.67510562	     -0.76240034	      1.59409595	     -0.59455207	    108.73407040	     48.73011166	     -8.67510562	      4.40222422	     -1.92352960	     44.36572255	      0.00000000	      0.00000000	      0.00000000	      0.00000000	      0.00000000	      0.00000000	      0.00000000	      0.00000000	      0.00000000	      0.00000000	      0.00000000	      0.00000000	     78.01102657	     17.60002128	    289.33293944	     54.01443701	      5.39703818	      1.56001252	      0.00000000	      0.00000000	      0.00000000	      0.00000000	      0.00000000	      0.00000000	      0.00000001	      0.00000000	     55.00000000	    -95.26270000	      0.00000000
